<svg width="42" height="36" viewBox="0 0 42 36" fill="none" xmlns="http://www.w3.org/2000/svg">
<path d="M24.3225 0.658126C23.8832 1.09748 23.8832 1.80975 24.3225 2.2491L39.5214 17.448C39.8262 17.7528 39.8262 18.2471 39.5214 18.5519L24.3225 33.7507C23.8832 34.1901 23.8832 34.9024 24.3225 35.3417C24.7619 35.7811 25.4741 35.7811 25.9135 35.3417L41.1124 20.1428C42.2959 18.9593 42.2959 17.0405 41.1124 15.857L25.9135 0.658126C25.4741 0.218776 24.7619 0.218776 24.3225 0.658126ZM24.75 15.7499C23.5073 15.7499 22.5 16.7572 22.5 17.9999C22.5 19.2426 23.5073 20.2499 24.75 20.2499C25.9927 20.2499 27 19.2426 27 17.9999C27 16.7572 25.9927 15.7499 24.75 15.7499ZM2.25 15.7499C1.00732 15.7499 0 16.7572 0 17.9999C0 19.2426 1.00732 20.2499 2.25 20.2499C3.49268 20.2499 4.5 19.2426 4.5 17.9999C4.5 16.7572 3.49268 15.7499 2.25 15.7499ZM17.25 15.7499C16.0073 15.7499 15 16.7572 15 17.9999C15 19.2426 16.0073 20.2499 17.25 20.2499C18.4927 20.2499 19.5 19.2426 19.5 17.9999C19.5 16.7572 18.4927 15.7499 17.25 15.7499ZM9.75 15.7499C8.50732 15.7499 7.5 16.7572 7.5 17.9999C7.5 19.2426 8.50732 20.2499 9.75 20.2499C10.9927 20.2499 12 19.2426 12 17.9999C12 16.7572 10.9927 15.7499 9.75 15.7499Z" fill="#F7A600"/>
<path d="M24.3225 0.658126C23.8832 1.09748 23.8832 1.80975 24.3225 2.2491L39.5214 17.448C39.8262 17.7528 39.8262 18.2471 39.5214 18.5519L24.3225 33.7507C23.8832 34.1901 23.8832 34.9024 24.3225 35.3417C24.7619 35.7811 25.4741 35.7811 25.9135 35.3417L41.1124 20.1428C42.2959 18.9593 42.2959 17.0405 41.1124 15.857L25.9135 0.658126C25.4741 0.218776 24.7619 0.218776 24.3225 0.658126ZM24.75 15.7499C23.5073 15.7499 22.5 16.7572 22.5 17.9999C22.5 19.2426 23.5073 20.2499 24.75 20.2499C25.9927 20.2499 27 19.2426 27 17.9999C27 16.7572 25.9927 15.7499 24.75 15.7499ZM2.25 15.7499C1.00732 15.7499 0 16.7572 0 17.9999C0 19.2426 1.00732 20.2499 2.25 20.2499C3.49268 20.2499 4.5 19.2426 4.5 17.9999C4.5 16.7572 3.49268 15.7499 2.25 15.7499ZM17.25 15.7499C16.0073 15.7499 15 16.7572 15 17.9999C15 19.2426 16.0073 20.2499 17.25 20.2499C18.4927 20.2499 19.5 19.2426 19.5 17.9999C19.5 16.7572 18.4927 15.7499 17.25 15.7499ZM9.75 15.7499C8.50732 15.7499 7.5 16.7572 7.5 17.9999C7.5 19.2426 8.50732 20.2499 9.75 20.2499C10.9927 20.2499 12 19.2426 12 17.9999C12 16.7572 10.9927 15.7499 9.75 15.7499Z" fill="white" fill-opacity="0.2"/>
</svg>
