<svg width="64" height="110" viewBox="0 0 64 110" fill="none" xmlns="http://www.w3.org/2000/svg">
<path d="M57.2539 93.8281V110H5.16406V96.4648C20.5938 71.2305 29.7539 55.625 32.6445 49.6484C35.5742 43.6328 37.0391 38.9453 37.0391 35.5859C37.0391 33.0078 36.5898 31.0937 35.6914 29.8438C34.832 28.5547 33.5039 27.9102 31.707 27.9102C29.9102 27.9102 28.5625 28.6133 27.6641 30.0195C26.8047 31.4258 26.375 34.2188 26.375 38.3984V47.4219H5.16406V43.9648C5.16406 38.6523 5.4375 34.4727 5.98438 31.4258C6.53125 28.3398 7.87891 25.3125 10.0273 22.3438C12.1758 19.375 14.9688 17.1289 18.4062 15.6055C21.8438 14.082 25.9648 13.3203 30.7695 13.3203C40.1836 13.3203 47.293 15.6641 52.0977 20.3516C56.9414 25 59.3633 30.8984 59.3633 38.0469C59.3633 43.4766 57.9961 49.2188 55.2617 55.2734C52.5664 61.3281 44.5781 74.1797 31.2969 93.8281H57.2539Z" fill="url(#paint0_linear_1825_3616)"/>
<defs>
<linearGradient id="paint0_linear_1825_3616" x1="32.5" y1="0" x2="32.5" y2="81" gradientUnits="userSpaceOnUse">
<stop stop-color="#FFB11A"/>
<stop offset="1" stop-color="#FFB11A" stop-opacity="0"/>
</linearGradient>
</defs>
</svg>
