<svg width="64" height="112" viewBox="0 0 64 112" fill="none" xmlns="http://www.w3.org/2000/svg">
<path d="M48.6914 56.2695C52.2852 57.4805 54.9609 59.4727 56.7188 62.2461C58.4766 64.9805 59.3555 71.4258 59.3555 81.582C59.3555 89.1211 58.4961 94.9805 56.7773 99.1602C55.0586 103.301 52.0898 106.465 47.8711 108.652C43.6523 110.801 38.2422 111.875 31.6406 111.875C24.1406 111.875 18.2422 110.625 13.9453 108.125C9.6875 105.586 6.875 102.5 5.50781 98.8672C4.17969 95.1953 3.51562 88.8477 3.51562 79.8242V72.3242H27.1875V87.7344C27.1875 91.8359 27.4219 94.4531 27.8906 95.5859C28.3984 96.6797 29.4922 97.2266 31.1719 97.2266C33.0078 97.2266 34.2188 96.5234 34.8047 95.1172C35.3906 93.7109 35.6836 90.0391 35.6836 84.1016V77.5391C35.6836 73.9062 35.2734 71.25 34.4531 69.5703C33.6328 67.8906 32.4219 66.7969 30.8203 66.2891C29.2188 65.7422 26.1133 65.4297 21.5039 65.3516V51.582C27.1289 51.582 30.6055 51.3672 31.9336 50.9375C33.2617 50.5078 34.2188 49.5703 34.8047 48.125C35.3906 46.6797 35.6836 44.4141 35.6836 41.3281V36.0547C35.6836 32.7344 35.332 30.5469 34.6289 29.4922C33.9648 28.4375 32.9102 27.9102 31.4648 27.9102C29.8242 27.9102 28.6914 28.4766 28.0664 29.6094C27.4805 30.7031 27.1875 33.0664 27.1875 36.6992V44.4922H3.51562V36.4062C3.51562 27.3437 5.58594 21.2305 9.72656 18.0664C13.8672 14.8633 20.4492 13.2617 29.4727 13.2617C40.7617 13.2617 48.418 15.4688 52.4414 19.8828C56.4648 24.2969 58.4766 30.4297 58.4766 38.2812C58.4766 43.5938 57.7539 47.4414 56.3086 49.8242C54.8633 52.168 52.3242 54.3164 48.6914 56.2695Z" fill="url(#paint0_linear_1825_3614)"/>
<defs>
<linearGradient id="paint0_linear_1825_3614" x1="32" y1="0" x2="32" y2="81" gradientUnits="userSpaceOnUse">
<stop stop-color="#FFB11A"/>
<stop offset="1" stop-color="#FFB11A" stop-opacity="0"/>
</linearGradient>
</defs>
</svg>
